{
  "accessors": [
    {
      "bufferView": 2,
      "componentType": 5126,
      "count": 9649,
      "max": [
        2.8640599250793457,
        1.2592099905014038,
        4.5800600051879883
      ],
      "min": [
        -2.8908898830413818,
        -1.8392599821090698,
        0.0030100001022219658
      ],
      "type": "VEC3"
    },
    {
      "bufferView": 2,
      "byteOffset": 115788,
      "componentType": 5126,
      "count": 9649,
      "max": [
        1,
        1,
        1
      ],
      "min": [
        -1,
        -1,
        -1
      ],
      "type": "VEC3"
    },
    {
      "bufferView": 3,
      "componentType": 5126,
      "count": 9649,
      "max": [
        1,
        0.99995177984237671,
        0.99999397993087769,
        1
      ],
      "min": [
        -1,
        -1,
        -0.99995112419128418,
        -1
      ],
      "type": "VEC4"
    },
    {
      "bufferView": 1,
      "componentType": 5126,
      "count": 9649,
      "max": [
        0.98738002777099609,
        0.98131000995635986
      ],
      "min": [
        0.0048600002191960812,
        0.017629999667406082
      ],
      "type": "VEC2"
    },
    {
      "bufferView": 0,
      "componentType": 5125,
      "count": 49620,
      "max": [
        9648
      ],
      "min": [
        0
      ],
      "type": "SCALAR"
    },
    {
      "bufferView": 4,
      "componentType": 5126,
      "count": 1,
      "max": [
        1,
        0,
        0,
        0,
        0,
        1,
        0,
        0,
        0,
        0,
        1,
        0,
        0,
        0,
        0,
        1
      ],
      "min": [
        1,
        0,
        0,
        0,
        0,
        1,
        0,
        0,
        0,
        0,
        1,
        0,
        0,
        0,
        0,
        1
      ],
      "type": "MAT4"
    }
  ],
  "asset": {
    "extras": {
      "author": "justin113d (https://sketchfab.com/justin113d)",
      "license": "CC-BY-4.0 (http://creativecommons.org/licenses/by/4.0/)",
      "source": "https://sketchfab.com/models/b281514344f14915913da72ca8b4d89f",
      "title": "Ugandan Knuckles HD Model"
    },
    "generator": "Sketchfab-3.20.7",
    "version": "2.0"
  },
  "bufferViews": [
    {
      "buffer": 0,
      "byteLength": 198480,
      "byteOffset": 0,
      "name": "floatBufferViews",
      "target": 34963
    },
    {
      "buffer": 0,
      "byteLength": 77192,
      "byteOffset": 198480,
      "byteStride": 8,
      "name": "floatBufferViews",
      "target": 34962
    },
    {
      "buffer": 0,
      "byteLength": 231576,
      "byteOffset": 275672,
      "byteStride": 12,
      "name": "floatBufferViews",
      "target": 34962
    },
    {
      "buffer": 0,
      "byteLength": 154384,
      "byteOffset": 507248,
      "byteStride": 16,
      "name": "floatBufferViews",
      "target": 34962
    },
    {
      "buffer": 0,
      "byteLength": 64,
      "byteOffset": 661632,
      "byteStride": 64,
      "name": "floatBufferViews"
    }
  ],
  "buffers": [
    {
      "byteLength": 661696,
      "uri": "scene.bin"
    }
  ],
  "images": [
    {
      "uri": "textures/Knux.001_baseColor.png"
    }
  ],
  "materials": [
    {
      "doubleSided": true,
      "emissiveFactor": [
        0,
        0,
        0
      ],
      "name": "Knux.001",
      "pbrMetallicRoughness": {
        "baseColorFactor": [
          1,
          1,
          1,
          1
        ],
        "baseColorTexture": {
          "index": 0,
          "texCoord": 0
        },
        "metallicFactor": 0,
        "roughnessFactor": 0.59999999999999998
      }
    }
  ],
  "meshes": [
    {
      "name": "Knuckles_0",
      "primitives": [
        {
          "attributes": {
            "NORMAL": 1,
            "POSITION": 0,
            "TANGENT": 2,
            "TEXCOORD_0": 3
          },
          "indices": 4,
          "material": 0,
          "mode": 4
        }
      ]
    }
  ],
  "nodes": [
    {
      "children": [
        1
      ],
      "name": "RootNode (gltf orientation matrix)",
      "rotation": [
        -0.70710678118654746,
        -0,
        -0,
        0.70710678118654757
      ]
    },
    {
      "children": [
        2
      ],
      "matrix": [
        1,
        0,
        0,
        0,
        0,
        0.99998676776885986,
        0.0051398752257227898,
        0,
        0,
        -0.0051398752257227898,
        0.99998676776885986,
        0,
        0,
        0.011774394661188126,
        0.0015209605917334557,
        1
      ],
      "name": "RootNode (model correction matrix)"
    },
    {
      "children": [
        3,
        7
      ],
      "name": "Root"
    },
    {
      "children": [
        4,
        5
      ],
      "name": "Armature"
    },
    {
      "name": "Armature_rootJoint"
    },
    {
      "children": [
        6
      ],
      "name": "Knuckles"
    },
    {
      "mesh": 0,
      "name": "Knuckles_0"
    },
    {
      "children": [
        8
      ],
      "matrix": [
        0.73100000000000009,
        -0.075290000000000024,
        -0.67821000000000009,
        0,
        0.45223999999999998,
        0.7977200000000001,
        0.39889000000000008,
        0,
        0.51099000000000006,
        -0.59831000000000001,
        0.61719000000000013,
        0,
        3.9821399999999998,
        -4.1736900000000006,
        5.9217200000000005,
        1
      ],
      "name": "Sun"
    },
    {
      "name": "Sun"
    }
  ],
  "samplers": [
    {
      "magFilter": 9729,
      "minFilter": 9987,
      "wrapS": 10497,
      "wrapT": 10497
    }
  ],
  "scene": 0,
  "scenes": [
    {
      "name": "OSG_Scene",
      "nodes": [
        0
      ]
    }
  ],
  "skins": [
    {
      "inverseBindMatrices": 5,
      "joints": [
        4
      ],
      "skeleton": 4
    }
  ],
  "textures": [
    {
      "sampler": 0,
      "source": 0
    }
  ]
}

